<?xml version="1.0" standalone="no"?>
<!DOCTYPE svg PUBLIC "-//W3C//DTD SVG 20010904//EN"
 "http://www.w3.org/TR/2001/REC-SVG-20010904/DTD/svg10.dtd">
<svg version="1.0" xmlns="http://www.w3.org/2000/svg"
 width="623.000000pt" height="492.000000pt" viewBox="0 0 623.000000 492.000000"
 preserveAspectRatio="xMidYMid meet">

<g transform="translate(0.000000,492.000000) scale(0.100000,-0.100000)"
fill="#000000" stroke="none">
<path d="M0 2460 l0 -2460 3115 0 3115 0 0 2460 0 2460 -3115 0 -3115 0 0
-2460z m3442 2314 c492 -63 987 -306 1342 -658 363 -360 593 -814 673 -1327
24 -157 24 -501 0 -654 -71 -450 -253 -849 -540 -1180 -98 -113 -175 -192
-179 -184 -2 2 -20 40 -42 84 -39 81 -120 190 -183 245 l-34 30 11 57 c5 31
10 82 10 114 0 40 5 60 17 70 46 39 193 243 260 364 102 182 198 478 223 685
15 124 12 370 -5 485 -32 214 -120 479 -216 650 -242 435 -638 755 -1114 899
-168 51 -272 67 -486 73 -354 10 -636 -54 -939 -214 -401 -211 -696 -542 -874
-980 -62 -150 -60 -203 4 -203 36 0 53 22 80 105 13 39 47 120 76 180 195 409
550 734 974 893 190 71 350 102 570 109 427 15 827 -119 1170 -392 175 -139
370 -382 474 -592 294 -591 228 -1319 -169 -1848 -52 -70 -82 -102 -89 -94 -1
2 -17 25 -34 51 -41 59 -102 110 -178 145 -54 26 -69 28 -179 28 -111 0 -124
-2 -177 -28 -68 -34 -145 -101 -187 -163 -68 -104 -84 -262 -39 -386 l25 -67
-34 -33 c-19 -18 -57 -66 -85 -105 -28 -40 -52 -73 -53 -73 -2 0 -16 25 -32
56 -15 31 -50 83 -76 116 l-49 60 28 84 c23 71 26 95 21 156 -14 185 -130 334
-301 387 -163 50 -331 7 -447 -116 -109 -115 -147 -275 -99 -422 l22 -70 -62
-58 -63 -59 -126 66 c-219 114 -358 219 -515 390 -79 86 -179 218 -207 271
l-18 37 37 -9 c65 -14 112 6 112 49 0 34 -27 62 -61 62 -41 0 -132 36 -174 70
-67 53 -119 30 -129 -57 -8 -64 -24 -171 -32 -210 -5 -26 -1 -36 20 -58 42
-42 96 -15 96 49 0 36 18 69 27 49 7 -18 110 -170 147 -218 175 -225 449 -443
694 -550 34 -15 62 -32 62 -37 0 -6 -21 -57 -46 -115 -59 -136 -74 -209 -74
-365 0 -71 -3 -128 -6 -128 -17 0 -185 76 -273 124 -663 363 -1107 1005 -1207
1746 -21 160 -18 475 6 641 47 322 187 687 360 945 126 186 329 405 504 543
328 258 704 419 1136 485 135 20 494 20 652 0z m-328 -3178 c155 -76 225 -270
152 -420 -34 -70 -94 -131 -156 -160 -64 -30 -206 -30 -271 1 -62 28 -125 93
-156 159 -32 71 -35 190 -5 257 23 53 80 118 129 148 91 56 211 62 307 15z
m1061 -5 c105 -37 173 -112 201 -222 30 -118 -3 -226 -96 -312 -203 -189 -530
-45 -530 233 0 221 216 374 425 301z m333 -652 c53 -65 117 -182 128 -235 5
-28 0 -34 -83 -95 -190 -142 -402 -258 -607 -334 -113 -42 -334 -100 -420
-110 -55 -7 -58 -6 -48 11 5 11 13 87 16 169 9 180 26 264 76 370 35 75 136
223 174 254 14 12 19 11 39 -6 82 -75 183 -107 314 -101 78 4 103 10 158 37
35 18 86 54 112 80 57 57 62 56 141 -40z m-1811 35 c173 -132 359 -137 540
-13 23 16 46 29 52 29 19 0 89 -110 121 -190 l32 -80 -21 -68 c-26 -85 -40
-196 -43 -345 -3 -112 -2 -120 19 -137 21 -16 21 -19 5 -25 -9 -4 -102 -9
-207 -12 -259 -7 -526 25 -728 87 l-66 20 -8 48 c-11 64 -8 234 6 305 6 32 34
111 63 175 43 93 65 128 113 179 33 35 64 63 68 63 4 0 28 -16 54 -36z"/>
<path d="M3171 3893 c-20 -18 -20 -23 -22 -657 l-2 -639 24 -11 c17 -8 212
-10 672 -6 561 4 649 7 657 20 16 26 11 58 -12 74 -20 14 -94 16 -604 16
l-582 0 -16 25 c-14 22 -16 86 -16 590 0 552 0 565 -20 585 -25 25 -51 25 -79
3z"/>
</g>
</svg>
